<?xml version="1.0" encoding="UTF-8" standalone="no"?>
<!DOCTYPE svg PUBLIC "-//W3C//DTD SVG 1.1//EN" "http://www.w3.org/Graphics/SVG/1.1/DTD/svg11.dtd">
<svg width="100%" height="100%" viewBox="0 0 3544 3544" version="1.1" xmlns="http://www.w3.org/2000/svg" xmlns:xlink="http://www.w3.org/1999/xlink" xml:space="preserve" xmlns:serif="http://www.serif.com/" style="fill-rule:evenodd;clip-rule:evenodd;stroke-linejoin:round;stroke-miterlimit:1.41421;">
    <g id="Layer2" transform="matrix(2.3839,0,0,2.3839,-2784.69,-2659.45)">
        <path d="M1791.66,1270.59C1791.66,1270.59 1556.13,1301.36 1435.46,1543.35C1492.44,1515.99 1510.78,1507.59 1566.56,1497.27C1439.71,1559.16 1392.34,1587.82 1270.47,1923.26C1335.42,1856.4 1351.61,1873.83 1402.27,1793.36C1266.65,1949.62 1150.98,2152.67 1245.63,2328.23C1256.18,2240.69 1267.91,2227.98 1267.91,2227.98L1286.5,2173.21C1286.5,2173.21 1208.25,2348.28 1337.36,2448.04C1466.46,2547.8 2545.36,2693.3 2595.5,2253.94C2645.64,1814.59 2509.41,1772.07 2488.4,1709.03C2604.45,1862.8 2589.57,1852.32 2614.4,1921.08C2647.83,1628.34 2591.55,1539.49 2310.75,1439.68C2299.29,1363.27 2425.36,1319.34 2448.29,1319.34C2408.17,1231.47 2285.91,1284.95 2276.36,1302.14C2287.83,1239.11 2205.68,1114.94 2081.52,1172.25C2151.59,1256.45 2219.36,1385.13 2219.36,1385.13C2219.36,1385.13 2037.75,1225.98 1791.66,1270.59Z" style="fill:rgb(184,175,163);"/>
    </g>
    <g id="Layer3" transform="matrix(2.3839,0,0,2.3839,-2784.69,-2659.45)">
        <path d="M1883.71,1514.42C2091.04,1514.42 2259.36,1682.74 2259.36,1890.07L2267,2074.03C2267,2102.43 2271.51,2261.61 2271.36,2264.6C2266.65,2359.95 2187.74,2435.92 2091.22,2435.92L1518.21,2435.92C1418.67,2435.92 1337.86,2355.11 1337.86,2255.57L1337.86,2186.86C1337.86,2107.64 1389.04,2040.28 1460.11,2016.08L1460.11,1890.07C1460.11,1682.74 1628.43,1514.42 1835.76,1514.42L1883.71,1514.42Z" style="fill:rgb(202,120,134);"/>
        <g transform="matrix(1.03846,0,0,1.01442,-89.1043,-81.6177)">
            <path d="M1708.3,1796.44C1708.3,1771.77 1688.73,1751.74 1664.63,1751.74L1553.3,1751.74C1529.2,1751.74 1509.63,1771.77 1509.63,1796.44L1509.63,1806.37C1509.63,1831.04 1529.2,1851.07 1553.3,1851.07L1664.63,1851.07C1688.73,1851.07 1708.3,1831.04 1708.3,1806.37L1708.3,1796.44Z" style="fill:rgb(146,86,91);"/>
        </g>
        <g transform="matrix(1.36298,0,0,1.01442,-232.778,-81.6177)">
            <path d="M1708.3,1796.44C1708.3,1771.77 1693.39,1751.74 1675.03,1751.74L1542.9,1751.74C1524.54,1751.74 1509.63,1771.77 1509.63,1796.44L1509.63,1806.37C1509.63,1831.04 1524.54,1851.07 1542.9,1851.07L1675.03,1851.07C1693.39,1851.07 1708.3,1831.04 1708.3,1806.37L1708.3,1796.44Z" style="fill:rgb(146,86,91);"/>
        </g>
        <circle cx="1925.95" cy="1850.45" r="90.737" style="fill:rgb(106,73,80);"/>
        <g transform="matrix(1.01316,0,0,1,-430.074,0)">
            <circle cx="1925.95" cy="1850.45" r="90.737" style="fill:rgb(106,73,80);"/>
        </g>
        <g transform="matrix(1,0,0,1,-11.4615,-1.91024)">
            <ellipse cx="1632.49" cy="2037.05" rx="58.262" ry="39.16" style="fill:rgb(106,73,80);"/>
        </g>
        <g transform="matrix(1,0,0,1,-177.653,-1.91024)">
            <ellipse cx="1632.49" cy="2037.05" rx="58.262" ry="39.16" style="fill:rgb(106,73,80);"/>
        </g>
        <path d="M1673.88,2112.51C1735.91,2112.51 1786.26,2162.86 1786.26,2224.89L1786.26,2303.86C1786.26,2365.88 1735.91,2416.24 1673.88,2416.24L1400.07,2416.24C1338.04,2416.24 1287.69,2365.88 1287.69,2303.86L1287.69,2250.67L1349.92,2250.67C1349.92,2250.67 1350.54,2225.36 1350.54,2164.24C1350.54,2103.13 1424.14,2112.51 1424.14,2112.51L1673.88,2112.51Z" style="fill:rgb(146,86,91);"/>
        <path d="M1609.89,2251.33C1609.89,2244.37 1604.24,2238.72 1597.28,2238.72L1296.99,2238.72C1290.04,2238.72 1284.38,2244.37 1284.38,2251.33L1284.38,2276.55C1284.38,2283.51 1290.04,2289.16 1296.99,2289.16L1597.28,2289.16C1604.24,2289.16 1609.89,2283.51 1609.89,2276.55L1609.89,2251.33Z" style="fill:rgb(106,73,80);"/>
    </g>
</svg>
