<?xml version="1.0" encoding="UTF-8" standalone="no"?>
<!DOCTYPE svg PUBLIC "-//W3C//DTD SVG 1.1//EN" "http://www.w3.org/Graphics/SVG/1.1/DTD/svg11.dtd">
<svg width="100%" height="100%" viewBox="0 0 3544 3544" version="1.1" xmlns="http://www.w3.org/2000/svg" xmlns:xlink="http://www.w3.org/1999/xlink" xml:space="preserve" xmlns:serif="http://www.serif.com/" style="fill-rule:evenodd;clip-rule:evenodd;stroke-linecap:round;stroke-linejoin:round;stroke-miterlimit:1.5;">
    <g transform="matrix(1,0,0,1,515.146,362.842)">
        <path d="M2416.72,665.493L2255.46,665.493L2255.46,213.341L310.221,213.341L310.221,665.493L148.958,665.493L148.958,56.557L2416.72,56.557L2416.72,665.493Z" style="fill:rgb(103,167,255);stroke:rgb(23,106,221);stroke-width:62.85px;"/>
    </g>
    <g transform="matrix(0.823633,0,0,1,442.258,510.946)">
        <path d="M3261.63,1089.74C3261.63,1017.05 3189.98,958.038 3101.73,958.038L246.666,958.038C158.415,958.038 86.767,1017.05 86.767,1089.74L86.767,2472.57C86.767,2545.25 158.415,2604.26 246.666,2604.26L3101.73,2604.26C3189.98,2604.26 3261.63,2545.25 3261.63,2472.57L3261.63,1089.74Z" style="fill:rgb(103,167,255);stroke:rgb(23,106,221);stroke-width:89.45px;"/>
    </g>
    <g transform="matrix(-0.823633,0,0,1,3266.52,464.359)">
        <path d="M568.54,2363.09L446.876,2241.42L221.036,2241.42L220.929,2597.59L568.432,2596.2L568.54,2363.09Z" style="fill:white;stroke:rgb(23,106,221);stroke-width:68.61px;"/>
    </g>
    <g transform="matrix(0.823633,0,0,1,368.468,464.359)">
        <path d="M568.54,2363.09L446.876,2241.42L221.036,2241.42L220.929,2597.59L568.432,2596.2L568.54,2363.09Z" style="fill:white;stroke:rgb(23,106,221);stroke-width:72.77px;"/>
    </g>
    <g transform="matrix(0.946067,0,0,0.715278,98.2704,392.255)">
        <path d="M3379.43,1015.82C3379.43,971.315 3352.12,935.185 3318.47,935.185L325.722,935.185C292.076,935.185 264.76,971.315 264.76,1015.82L264.76,1862.45C264.76,1906.95 292.076,1943.08 325.722,1943.08L3318.47,1943.08C3352.12,1943.08 3379.43,1906.95 3379.43,1862.45L3379.43,1015.82Z" style="fill:white;stroke:rgb(23,106,221);stroke-width:97.71px;"/>
    </g>
    <path d="M1167.66,1582.62C1167.66,1542.06 1134.73,1509.12 1094.17,1509.12L947.188,1509.12C906.627,1509.12 873.696,1542.06 873.696,1582.62L873.696,1904.58C873.696,1945.14 906.627,1978.08 947.188,1978.08L1094.17,1978.08C1134.73,1978.08 1167.66,1945.14 1167.66,1904.58L1167.66,1582.62Z" style="fill:white;stroke:rgb(23,106,221);stroke-width:66.67px;"/>
    <path d="M1926.16,1278.63C1772.36,1213.72 1664.67,1064.69 1664.67,891.398C1664.67,704.937 1789.35,546.565 1962,490.853L1962,938.713C1962,976.415 1992.61,1007.02 2030.31,1007.02L2166.94,1007.02C2204.64,1007.02 2235.25,976.415 2235.25,938.713L2235.25,490.853C2407.9,546.565 2532.58,704.937 2532.58,891.398C2532.58,1064.69 2424.89,1213.72 2271.09,1278.63L2271.09,2763.9L1926.16,2763.9L1926.16,1278.63Z" style="fill:rgb(103,167,255);stroke:rgb(23,106,221);stroke-width:81.94px;"/>
</svg>
